<?xml version="1.0" ?><svg height="512" preserveAspectRatio="xMidYMid" viewBox="0 0 512 512" width="512" xmlns="http://www.w3.org/2000/svg" xmlns:xlink="http://www.w3.org/1999/xlink"><defs><style>
      .cls-1 {
        fill: #fff;
      }

      .cls-2 {
        fill: #fffc01;
      }

      .cls-2, .cls-3 {
        fill-rule: evenodd;
      }

      .cls-3 {
        fill: #000;
        opacity: 0.1;
      }
    </style></defs><circle class="cls-1" cx="256" cy="256" r="256"/><path class="cls-2" d="M256.000,512.000 C114.615,512.000 0.000,397.385 0.000,256.000 C0.000,114.615 114.615,0.000 256.000,0.000 C397.385,0.000 512.000,114.615 512.000,256.000 C512.000,397.385 397.385,512.000 256.000,512.000 ZM401.364,249.020 C395.973,228.711 352.223,267.009 352.223,244.112 C352.223,228.949 352.223,222.921 352.223,170.490 C352.223,140.474 302.351,102.743 253.940,103.004 C207.809,103.253 163.028,139.965 163.028,172.945 C163.028,220.431 163.082,234.450 163.119,237.834 C163.099,238.833 163.070,241.020 163.028,245.339 C143.095,263.115 124.453,235.107 116.343,246.566 C104.252,263.650 172.528,260.881 159.342,294.420 C131.459,365.337 75.204,365.606 77.030,369.268 C82.660,380.560 119.201,382.292 123.714,386.446 C128.321,390.685 122.659,403.788 132.314,409.760 C139.133,413.977 147.339,403.139 183.913,409.760 C210.225,414.523 219.356,444.906 256.397,442.889 C293.437,440.872 310.733,417.061 335.023,408.532 C359.313,400.004 376.983,413.601 382.936,409.760 C390.990,404.561 383.974,391.220 391.536,385.219 C399.984,378.514 419.955,385.511 436.992,369.268 C392.078,359.986 357.970,311.097 354.679,287.057 C351.390,263.018 406.755,269.329 401.364,249.020 ZM163.119,237.834 C163.170,235.190 163.152,240.914 163.119,237.834 Z"/><path class="cls-3" d="M436.999,75.012 C536.959,174.972 536.959,337.039 436.999,436.999 C337.039,536.959 174.972,536.959 75.012,436.999 "/></svg>